<?xml version="1.0" standalone="no"?><!DOCTYPE svg PUBLIC "-//W3C//DTD SVG 1.1//EN" "http://www.w3.org/Graphics/SVG/1.1/DTD/svg11.dtd"><svg t="1702900248189" class="icon" viewBox="0 0 1024 1024" version="1.1" xmlns="http://www.w3.org/2000/svg" p-id="770" width="16" height="16" xmlns:xlink="http://www.w3.org/1999/xlink"><path d="M512 1010.086957A498.086957 498.086957 0 1 1 1010.086957 512 498.309565 498.309565 0 0 1 512 1010.086957z m0-985.043479A486.956522 486.956522 0 1 0 998.956522 512 487.846957 487.846957 0 0 0 512 25.043478z" opacity=".98" p-id="771" fill="#AFB1B3"></path><path d="M512 1024a512 512 0 1 1 512-512 512.556522 512.556522 0 0 1-512 512zM512 38.956522a473.043478 473.043478 0 1 0 473.043478 473.043478A473.6 473.6 0 0 0 512 38.956522z" opacity=".98" p-id="772" fill="#AFB1B3"></path><path d="M476.382609 711.791304a75.686957 75.686957 0 0 1-12.8-29.495652 1021.050435 1021.050435 0 0 0-120.208696-274.921739H333.913043a57.210435 57.210435 0 0 0-7.791304 19.478261A484.173913 484.173913 0 0 1 333.913043 523.130435a1001.73913 1001.73913 0 0 1-10.573913 144.695652c-7.234783 49.530435-27.269565 81.252174-60.104347 94.608696-18.921739 1.113043-28.93913-7.234783-30.052174-25.6a24.765217 24.765217 0 0 1 6.121739-19.478261c39.513043-76.243478 58.434783-162.504348 57.321739-258.782609a120.208696 120.208696 0 0 0-5.565217-45.634783q-6.678261-17.530435-33.391305-20.034782a52.201739 52.201739 0 0 1 23.373913-38.4c13.356522-8.904348 26.156522-12.243478 38.4-9.46087a60.048696 60.048696 0 0 1 32.834783 2.782609c11.130435 3.895652 17.252174 13.913043 19.478261 30.052174Q446.886957 526.469565 508.66087 662.26087c6.678261 3.895652 11.686957 5.008696 15.026087 2.782608 25.6-46.191304 50.086957-94.608696 73.460869-144.695652s47.304348-97.391304 72.347826-142.469565c1.669565-23.373913 10.573913-32.278261 27.269565-25.6a62.998261 62.998261 0 0 0 36.173913-4.452174c4.452174-3.895652 12.243478-5.008696 22.817392-2.782609 15.582609 1.113043 23.373913 9.46087 23.930435 23.930435a631.206957 631.206957 0 0 0-16.695653 154.713044q5.565217 99.33913 16.695653 197.008695a83.478261 83.478261 0 0 1-8.347827 37.286957q-9.182609 16.695652-35.060869 18.365217c-13.913043-1.113043-20.591304-7.791304-19.478261-19.478261 2.782609-64 6.121739-126.886957 8.904348-188.104348V424.626087c2.226087-13.356522-0.556522-21.147826-8.904348-23.930435a35.172174 35.172174 0 0 0-23.930435 22.817391c-53.426087 83.478261-89.6 154.713043-107.965217 212.591305s-32.834783 88.486957-43.408696 91.269565q-12.521739 0.834783-30.052174 1.669565c-16.695652-2.226087-28.382609-7.791304-35.060869-17.252174z" p-id="773" fill="#AFB1B3"></path><path d="M736.166957 790.316522h-1.00174a35.784348 35.784348 0 0 1-25.766956-11.575652 30.274783 30.274783 0 0 1-6.511304-22.706087q2.393043-53.815652 5.064347-106.573913 2.003478-40.904348 3.84-80.918261V422.455652a32.445217 32.445217 0 0 0 0.50087-3.895652 19.97913 19.97913 0 0 0-6.4 9.46087l-0.556522 1.669565-0.890435 1.446956c-52.702609 82.253913-88.486957 152.653913-106.462608 209.307826-24.932174 78.58087-38.956522 96.723478-53.092174 100.507826l-2.615652 0.389566c-8.45913 0.612174-18.532174 1.168696-30.330435 1.725217h-2.504348c-21.036522-2.838261-35.617391-10.351304-44.521739-23.04v-0.278261a89.043478 89.043478 0 0 1-14.803478-34.226087A1007.304348 1007.304348 0 0 0 340.98087 430.191304 520.292174 520.292174 0 0 1 347.826087 523.130435a1017.043478 1017.043478 0 0 1-10.74087 146.69913c-7.958261 54.706087-31.053913 90.212174-68.61913 105.739131l-2.114783 0.834782h-2.281739c-26.601739 1.502609-42.907826-12.29913-44.521739-38.010435a37.787826 37.787826 0 0 1 8.125217-28.326956c37.732174-73.293913 56.32-157.829565 55.262609-251.269565v-0.779131a107.241739 107.241739 0 0 0-4.674782-40.292174c-0.890435-2.337391-3.561739-9.46087-21.648696-11.130434l-14.413913-1.335653 1.892174-14.35826a65.947826 65.947826 0 0 1 29.44-48.139131 63.49913 63.49913 0 0 1 46.246956-12.020869 73.627826 73.627826 0 0 1 37.509566 3.84c15.248696 5.565217 24.765217 18.42087 28.104347 38.956521C434.086957 469.982609 478.608696 562.142609 517.565217 647.735652c22.817391-41.73913 45.356522-86.483478 67.172174-133.286956 20.591304-45.189565 43.965217-91.269565 71.401739-140.744348 1.669565-16.695652 7.067826-27.826087 16.36174-33.391305a30.886957 30.886957 0 0 1 28.16-1.502608 48.528696 48.528696 0 0 0 25.6-3.227826c5.843478-4.118261 15.749565-7.457391 31.666087-4.34087 21.648696 1.947826 35.06087 15.749565 35.895652 37.175652v1.947826l-0.445218 1.892174a619.074783 619.074783 0 0 0-16.306087 150.928696c3.84 65.613913 9.46087 131.506087 16.695653 195.951304v1.558261a98.003478 98.003478 0 0 1-9.794783 43.52c-6.121739 11.130435-18.921739 24.208696-46.636522 26.045218z m3.450434-364.577392v143.582609q-1.836522 40.236522-3.895652 81.307826-2.56 52.758261-5.008696 106.796522v0.723478a6.845217 6.845217 0 0 0 0 2.615652 12.410435 12.410435 0 0 0 5.565218 1.558261c17.363478-1.391304 21.370435-8.681739 22.706087-11.130435a68.841739 68.841739 0 0 0 6.622609-29.829565c-7.17913-64.77913-12.8-131.005217-16.695653-196.897391v-0.667826a648.292174 648.292174 0 0 1 16.695653-156.104348c-0.50087-5.565217-2.615652-8.236522-11.130435-8.848696h-1.892174a18.532174 18.532174 0 0 0-11.130435 0l-1.725217 1.558261-2.003479 0.723479a77.078261 77.078261 0 0 1-43.965217 5.286956h-1.335652l-1.335652-0.50087a12.354783 12.354783 0 0 0-4.841739-1.168695 32.055652 32.055652 0 0 0-3.394783 14.85913v3.06087l-1.446957 2.671304c-27.826087 49.808696-51.2 96.055652-71.902608 141.523478-23.986087 51.422609-48.862609 100.173913-73.906087 145.64174l-1.669565 2.949565-2.782609 1.892174c-8.013913 5.565217-18.031304 4.507826-29.773913-2.337392l-3.84-2.226087-1.836522-4.062608c-40.069565-88.264348-86.038261-183.652174-136.626087-283.826087l-1.057391-2.059131-0.333913-2.337391c-2.170435-15.972174-7.846957-17.975652-10.295652-18.810435a46.469565 46.469565 0 0 0-25.488696-2.281739l-2.893913 0.612174-2.893913-0.667826c-8.292174-1.892174-17.252174 0.556522-27.826087 7.457391a37.398261 37.398261 0 0 0-13.857391 16.083479 42.963478 42.963478 0 0 1 29.161739 25.822608 131.450435 131.450435 0 0 1 6.455652 50.699131c1.113043 98.393043-18.69913 187.547826-58.88 265.071304l-1.224348 1.947826c-4.118261 5.565217-3.728696 7.735652-3.506087 8.848696v1.446956c0.50087 8.848696 2.56 12.633043 13.078261 12.633044 26.824348-11.965217 43.01913-38.956522 49.41913-82.810435a993.224348 993.224348 0 0 0 10.406957-142.692174 467.088696 467.088696 0 0 0-7.513044-93.44l-0.500869-2.56 0.389565-2.56a72.347826 72.347826 0 0 1 9.516522-24.208696l4.006956-6.900869h25.210435l4.118261 6.566956a1040.695652 1040.695652 0 0 1 121.822609 278.706087l0.278261 1.28a61.217391 61.217391 0 0 0 10.51826 23.874783c4.062609 5.565217 12.243478 9.405217 24.208696 11.130435 9.627826-0.445217 18.086957-0.890435 25.377391-1.391305 3.450435-3.450435 14.08-18.42087 34.226087-81.808695 18.587826-58.601739 55.151304-130.782609 108.633044-214.539131a49.307826 49.307826 0 0 1 32.111304-29.829565l4.396522-1.502609 4.396522 1.502609c9.293913 2.226087 23.04 11.01913 19.088695 37.565217z m-203.074782 288.779131z" p-id="774" fill="#AFB1B3"></path></svg>