<?xml version="1.0" standalone="no"?><!DOCTYPE svg PUBLIC "-//W3C//DTD SVG 1.1//EN"
        "http://www.w3.org/Graphics/SVG/1.1/DTD/svg11.dtd">
<svg t="1730993638651" class="icon" viewBox="0 0 1194 1024" version="1.1" xmlns="http://www.w3.org/2000/svg" p-id="4340"
     width="16" height="16" xmlns:xlink="http://www.w3.org/1999/xlink">
    <path d="M1099.349333 120.32L1194.666667 21.589333V0h-330.24L629.077333 634.197333 361.386667 0H15.104v21.589333l111.36 145.152c10.922667 10.752 16.469333 26.453333 15.104 42.24v570.368a68.181333 68.181333 0 0 1-16.042667 56.405334L0 1000.533333v21.333334h355.584v-21.674667l-125.44-164.266667a70.314667 70.314667 0 0 1-17.152-56.490666V286.122667l312.149333 736h36.266667l268.458667-736v586.410666c0 15.36 0 18.602667-9.386667 28.757334l-96.512 101.12V1024h468.48v-21.589333l-93.098667-98.730667a31.573333 31.573333 0 0 1-10.581333-28.842667V149.162667a31.573333 31.573333 0 0 1 10.496-28.842667z"
          p-id="4341" fill="#CED0D6"></path>
</svg>